<svg xmlns="http://www.w3.org/2000/svg" viewBox="0 0 372 260" width="372" height="260" role="img" aria-label="myriapod">
  <title>myriapod</title>
  <defs>
    <linearGradient id="spine" x1="0" y1="1" x2="1" y2="0"><stop offset="0" stop-color="#6C5CE7"/><stop offset="1" stop-color="#22D3B2"/></linearGradient>
  </defs>
  <g fill="none" stroke="#FFB020" stroke-width="6" stroke-linecap="round" stroke-linejoin="round">
    <path d="M69.9 194.6 L71.5 214.0 L82.4 215.9"/>
    <path d="M65.8 193.9 L56.4 213.7 L67.3 215.6"/>
    <path d="M97.9 193.7 L107.5 211.5 L118.2 209.0"/>
    <path d="M93.2 194.8 L92.5 217.5 L103.2 215.0"/>
    <path d="M125.4 183.4 L139.6 199.0 L149.4 193.9"/>
    <path d="M120.7 185.8 L125.7 208.9 L135.5 203.8"/>
    <path d="M152.8 167.5 L169.3 181.8 L178.4 175.6"/>
    <path d="M148.0 170.7 L155.9 193.7 L165.0 187.6"/>
    <path d="M180.1 149.0 L197.6 163.2 L206.5 156.7"/>
    <path d="M175.0 152.7 L184.0 176.0 L192.9 169.6"/>
    <path d="M207.2 130.8 L224.8 146.0 L233.9 139.8"/>
    <path d="M201.7 134.6 L210.1 158.9 L219.2 152.7"/>
    <path d="M233.9 115.8 L250.1 133.3 L259.8 128.1"/>
    <path d="M227.5 119.2 L233.5 144.9 L243.2 139.7"/>
    <path d="M259.1 106.9 L271.7 127.9 L282.3 124.9"/>
    <path d="M251.9 109.0 L252.3 136.0 L262.9 133.0"/>
    <path d="M281.9 106.2 L286.8 130.8 L297.8 131.5"/>
    <path d="M273.9 105.7 L265.1 131.9 L276.1 132.6"/>
  </g>
  <g fill="none" stroke="#FFB020" stroke-width="6" stroke-linecap="round">
    <path d="M299 68 C303 44, 315 38, 321 30"/>
    <path d="M319 72 C335 54, 347 54, 359 50"/>
  </g>
  <g fill="#FF6B6B">
    <circle cx="322" cy="28" r="6.5"/>
    <circle cx="361" cy="49" r="6.5"/>
  </g>
  <path d="M46.0 176.0 C120.0 232.0, 212.0 60.0, 300.0 96.0" fill="none" stroke="url(#spine)" stroke-width="26" stroke-linecap="round" opacity="0.95"/>
  <circle cx="46.0" cy="176.0" r="9.5" fill="#6C5CE7"/>
  <circle cx="47.7" cy="173.7" r="4.0" fill="#FFFFFF" opacity="0.22"/>
  <circle cx="69.2" cy="186.5" r="11.7" fill="#6469E1"/>
  <circle cx="69.9" cy="183.1" r="4.9" fill="#FFFFFF" opacity="0.22"/>
  <circle cx="93.5" cy="185.5" r="13.3" fill="#5C76DB"/>
  <circle cx="92.5" cy="181.6" r="5.6" fill="#FFFFFF" opacity="0.22"/>
  <circle cx="118.5" cy="175.8" r="14.7" fill="#5384D5"/>
  <circle cx="116.5" cy="171.9" r="6.2" fill="#FFFFFF" opacity="0.22"/>
  <circle cx="144.3" cy="160.1" r="16.0" fill="#4B91CF"/>
  <circle cx="141.6" cy="156.2" r="6.7" fill="#FFFFFF" opacity="0.22"/>
  <circle cx="170.6" cy="141.4" r="17.3" fill="#439ECA"/>
  <circle cx="167.6" cy="137.2" r="7.3" fill="#FFFFFF" opacity="0.22"/>
  <circle cx="197.4" cy="122.3" r="18.5" fill="#3BABC4"/>
  <circle cx="194.3" cy="117.7" r="7.8" fill="#FFFFFF" opacity="0.22"/>
  <circle cx="224.4" cy="105.7" r="19.7" fill="#32B9BE"/>
  <circle cx="221.7" cy="100.5" r="8.3" fill="#FFFFFF" opacity="0.22"/>
  <circle cx="251.6" cy="94.4" r="20.9" fill="#2AC6B8"/>
  <circle cx="249.9" cy="88.4" r="8.8" fill="#FFFFFF" opacity="0.22"/>
  <circle cx="278.8" cy="91.1" r="22.0" fill="#22D3B2"/>
  <circle cx="279.2" cy="84.5" r="9.2" fill="#FFFFFF" opacity="0.22"/>
  <circle cx="305" cy="92" r="30" fill="#22D3B2"/>
  <circle cx="301" cy="100" r="20" fill="#FFFFFF" opacity="0.18"/>
  <circle cx="296" cy="88" r="9" fill="#FFFFFF"/>
  <circle cx="298" cy="89" r="4.6" fill="#12303B"/>
  <circle cx="300" cy="87" r="1.6" fill="#FFFFFF"/>
  <circle cx="318" cy="86" r="9" fill="#FFFFFF"/>
  <circle cx="320" cy="87" r="4.6" fill="#12303B"/>
  <circle cx="322" cy="85" r="1.6" fill="#FFFFFF"/>
  <path d="M301 105 q9 9 18 -1" fill="none" stroke="#12303B" stroke-width="4" stroke-linecap="round"/>
  <circle cx="289" cy="103" r="5" fill="#FF9AA2" opacity="0.75"/>
</svg>
